<svg xmlns="http://www.w3.org/2000/svg" width="24.775" height="26.944" viewBox="0 0 24.775 26.944">
  <g transform="translate(-30.105 129.593) rotate(2)">
    <g transform="translate(25.728 -128.633) rotate(-7)" fill="rgba(255,255,255,0)">
      <path d="M 10.40094089508057 20.18755912780762 C 7.851751327514648 20.18755912780762 5.462651252746582 19.19672775268555 3.673761129379272 17.3975887298584 C 1.877921104431152 15.5914478302002 0.8969811201095581 13.18293857574463 0.9116511344909668 10.61571788787842 C 0.9420611262321472 5.293288230895996 5.285201072692871 0.9373082518577576 10.59325122833252 0.9055282473564148 L 10.65198135375977 0.9053582549095154 C 13.20118141174316 0.9053582549095154 15.59028148651123 1.896188259124756 17.37918090820313 3.695338249206543 C 19.17502021789551 5.501468181610107 20.15596199035645 7.90997838973999 20.14129066467285 10.47719860076904 C 20.11088180541992 15.79962825775146 15.76774120330811 20.15560913085938 10.45969104766846 20.18738746643066 L 10.40094089508057 20.18755912780762 Z" stroke="none"/>
      <path d="M 10.65200138092041 1.905357360839844 L 10.59923076629639 1.905508041381836 C 5.83617115020752 1.934028625488281 1.938930511474609 5.843977928161621 1.911630630493164 10.62143802642822 C 1.898490905761719 12.92045783996582 2.776140213012695 15.0765380859375 4.382881164550781 16.6924877166748 C 5.982690811157227 18.30145835876465 8.119951248168945 19.18755912780762 10.40096092224121 19.18755912780762 L 10.45371150970459 19.18740844726563 C 15.21677112579346 19.15888786315918 19.11401176452637 15.24893760681152 19.14130020141602 10.47147846221924 C 19.15444183349609 8.17244815826416 18.27680206298828 6.01636791229248 16.6700611114502 4.400417327880859 C 15.07026100158691 2.791458129882813 12.93301105499268 1.905357360839844 10.65200138092041 1.905357360839844 M 10.65200233459473 -0.09464645385742188 C 16.48457717895508 -0.09464645385742188 21.17472839355469 4.627620697021484 21.14127159118652 10.48290824890137 C 21.10770034790039 16.35971832275391 16.32808113098145 21.15226745605469 10.4656810760498 21.18736839294434 C 10.44421195983887 21.18749618530273 10.42239570617676 21.18756294250488 10.40095806121826 21.18756294250488 C 4.568384170532227 21.18756294250488 -0.1217861175537109 16.46529769897461 -0.08833885192871094 10.61000823974609 C -0.05475807189941406 4.733198165893555 4.724861145019531 -0.05935096740722656 10.58726119995117 -0.094451904296875 C 10.60873031616211 -0.09457969665527344 10.63056468963623 -0.09464645385742188 10.65200233459473 -0.09464645385742188 Z" stroke="none" fill="#fff"/>
    </g>
    <line x2="5.785" y2="6.288" transform="translate(43.748 -112.192)" fill="none" stroke="#fff" stroke-linecap="round" stroke-width="2"/>
  </g>
</svg>